<svg width="468" height="478" viewBox="0 0 468 478" fill="none" xmlns="http://www.w3.org/2000/svg">
<g clip-path="url(#clip0_188_4481)">
<rect x="112" y="31" width="317" height="685" rx="46" fill="#0553AD"/>
<path d="M183.981 41.8142H161.613C139.507 41.8142 121.587 59.7342 121.587 81.8397V635.322C121.587 661.279 142.63 682.322 168.587 682.322H372.103C398.061 682.322 419.103 661.279 419.103 635.322V82.2053C419.103 59.8979 401.02 41.8142 378.712 41.8142H356.091C353.107 41.8142 350.651 44.1637 350.52 47.1452C350.132 55.9144 342.91 62.8246 334.133 62.8246H205.94C197.162 62.8246 189.94 55.9144 189.552 47.1452C189.421 44.1637 186.965 41.8142 183.981 41.8142Z" fill="white"/>
<g filter="url(#filter0_d_188_4481)">
<g clip-path="url(#clip1_188_4481)">
<path d="M398.984 -15.7443H65.1162V1305.12H398.984V-15.7443Z" fill="white"/>
<path opacity="0.5" d="M65.1162 99.1527C65.1162 87.3468 74.6828 77.7765 86.4837 77.7765H377.617C389.418 77.7765 398.984 87.3468 398.984 99.1527V491.94H65.1162V99.1527Z" fill="#EDF1F9"/>
<path d="M84.8316 204.252C84.2701 204.252 83.7935 204.161 83.4017 203.978C83.01 203.788 82.7097 203.524 82.5007 203.184C82.2984 202.838 82.1971 202.434 82.1971 201.97H83.0785C83.0785 202.191 83.1308 202.417 83.2352 202.646C83.3463 202.874 83.529 203.067 83.7837 203.224C84.0383 203.374 84.3877 203.449 84.8316 203.449C85.4192 203.449 85.8534 203.325 86.1341 203.077C86.4214 202.828 86.565 202.544 86.565 202.224C86.565 201.911 86.4377 201.65 86.1831 201.441C85.9284 201.231 85.5596 201.104 85.0764 201.058L84.43 201C83.8033 200.941 83.3038 200.751 82.9316 200.431C82.5595 200.112 82.3734 199.654 82.3734 199.06C82.3734 198.648 82.4713 198.299 82.6672 198.011C82.8697 197.717 83.1504 197.492 83.5095 197.335C83.8751 197.179 84.3027 197.1 84.7924 197.1C85.2821 197.1 85.7032 197.188 86.0558 197.365C86.4149 197.535 86.6923 197.786 86.8882 198.119C87.0841 198.446 87.182 198.841 87.182 199.305H86.3006C86.3006 199.07 86.2484 198.848 86.1439 198.638C86.0395 198.423 85.8763 198.247 85.6542 198.109C85.4388 197.972 85.1515 197.904 84.7924 197.904C84.4725 197.904 84.1983 197.956 83.9697 198.06C83.7478 198.158 83.5748 198.296 83.4507 198.472C83.3332 198.648 83.2744 198.844 83.2744 199.06C83.2744 199.34 83.3756 199.585 83.578 199.795C83.7805 199.997 84.0906 200.118 84.5084 200.157L85.1548 200.216C85.8534 200.281 86.4116 200.487 86.8294 200.833C87.2538 201.172 87.466 201.636 87.466 202.224C87.466 202.63 87.3583 202.985 87.1428 203.292C86.9274 203.592 86.6238 203.828 86.232 203.998C85.8403 204.168 85.3735 204.252 84.8316 204.252ZM84.4104 205.516V204.086H85.2527V205.516H84.4104ZM84.3713 197.58V196.15H85.2135V197.58H84.3713ZM88.7817 204.252V203.077C88.7817 202.789 88.8209 202.544 88.8992 202.342C88.9842 202.14 89.1278 201.956 89.3301 201.793C89.5326 201.623 89.8068 201.46 90.1528 201.303L91.4945 200.686C91.821 200.536 92.0789 200.343 92.2682 200.108C92.4576 199.867 92.5522 199.556 92.5522 199.177C92.5522 198.72 92.4249 198.364 92.1703 198.109C91.9156 197.855 91.5566 197.727 91.093 197.727C90.636 197.727 90.2769 197.855 90.0157 198.109C89.7546 198.364 89.624 198.72 89.624 199.177H88.7034C88.7034 198.766 88.7883 198.387 88.958 198.041C89.1343 197.694 89.3987 197.42 89.7513 197.218C90.1038 197.009 90.5511 196.904 91.093 196.904C91.6349 196.904 92.0789 197.009 92.4249 197.218C92.7774 197.42 93.0387 197.688 93.2084 198.021C93.3846 198.354 93.4728 198.717 93.4728 199.109V199.246C93.4728 199.762 93.3227 200.196 93.0223 200.549C92.7285 200.902 92.3302 201.192 91.8275 201.421L90.4858 202.038C90.1855 202.175 89.9831 202.312 89.8786 202.45C89.7741 202.587 89.7219 202.769 89.7219 202.998V203.9L89.4673 203.449H93.5609V204.252H88.7817ZM99.6345 204.252L96.7258 200.911H95.6779L98.9979 197.1H100.095L97.0784 200.549L96.9902 199.873L100.829 204.252H99.6345ZM95.1295 204.252V197.1H96.0892V204.252H95.1295Z" fill="#585757"/>
<path d="M104.29 200.244H403.436" stroke="#BFBFBF" stroke-dasharray="4 4"/>
<path d="M84.9925 254.13C84.4309 254.13 83.9544 254.038 83.5626 253.855C83.1709 253.666 82.8706 253.401 82.6616 253.062C82.4592 252.715 82.358 252.311 82.358 251.847H83.2394C83.2394 252.069 83.2917 252.294 83.3961 252.523C83.5071 252.752 83.6899 252.944 83.9446 253.101C84.1992 253.251 84.5485 253.326 84.9925 253.326C85.5801 253.326 86.0143 253.202 86.295 252.954C86.5823 252.705 86.7259 252.421 86.7259 252.102C86.7259 251.788 86.5986 251.527 86.344 251.318C86.0893 251.108 85.7205 250.981 85.2373 250.936L84.5909 250.877C83.9641 250.818 83.4647 250.628 83.0925 250.309C82.7204 249.989 82.5343 249.531 82.5343 248.937C82.5343 248.526 82.6322 248.176 82.8281 247.889C83.0305 247.595 83.3113 247.369 83.6703 247.213C84.036 247.056 84.4636 246.978 84.9533 246.978C85.443 246.978 85.8641 247.066 86.2166 247.242C86.5757 247.412 86.8532 247.663 87.0491 247.996C87.245 248.323 87.3429 248.718 87.3429 249.182H86.4615C86.4615 248.947 86.4092 248.725 86.3048 248.516C86.2003 248.3 86.0371 248.124 85.8151 247.987C85.5997 247.85 85.3123 247.781 84.9533 247.781C84.6334 247.781 84.3592 247.833 84.1306 247.938C83.9087 248.036 83.7356 248.173 83.6116 248.349C83.4941 248.526 83.4353 248.722 83.4353 248.937C83.4353 249.218 83.5365 249.463 83.7389 249.672C83.9413 249.874 84.2514 249.995 84.6693 250.034L85.3156 250.093C86.0143 250.158 86.5725 250.364 86.9903 250.71C87.4147 251.05 87.6269 251.514 87.6269 252.102C87.6269 252.507 87.5192 252.862 87.3037 253.17C87.0883 253.47 86.7847 253.705 86.3929 253.875C86.0012 254.045 85.5344 254.13 84.9925 254.13ZM84.5713 255.394V253.963H85.4136V255.394H84.5713ZM84.5322 247.458V246.027H85.3744V247.458H84.5322ZM90.1962 254.13V247.448L90.6271 247.781H88.6096V246.978H91.1363V254.13H90.1962ZM97.8538 254.13L94.9452 250.789H93.8973L97.2173 246.978H98.3141L95.2978 250.426L95.2096 249.75L99.0487 254.13H97.8538ZM93.3489 254.13V246.978H94.3086V254.13H93.3489Z" fill="#585757"/>
<path d="M102.509 250.122H403.436" stroke="#BFBFBF" stroke-dasharray="4 4"/>
<path d="M84.7516 304.008C84.1901 304.008 83.7135 303.916 83.3218 303.734C82.93 303.544 82.6297 303.28 82.4208 302.94C82.2184 302.594 82.1172 302.189 82.1172 301.725H82.9986C82.9986 301.947 83.0509 302.173 83.1553 302.401C83.2663 302.63 83.4491 302.823 83.7037 302.979C83.9584 303.13 84.3076 303.205 84.7516 303.205C85.3392 303.205 85.7734 303.081 86.0542 302.833C86.3415 302.584 86.4851 302.3 86.4851 301.98C86.4851 301.667 86.3578 301.406 86.1031 301.196C85.8485 300.987 85.4796 300.86 84.9965 300.814L84.3501 300.755C83.7233 300.697 83.2238 300.507 82.8517 300.187C82.4795 299.867 82.2935 299.41 82.2935 298.816C82.2935 298.404 82.3914 298.055 82.5873 297.767C82.7896 297.473 83.0704 297.248 83.4295 297.091C83.7952 296.934 84.2228 296.856 84.7125 296.856C85.2021 296.856 85.6232 296.944 85.9758 297.121C86.3349 297.291 86.6124 297.542 86.8083 297.875C87.0041 298.202 87.1021 298.596 87.1021 299.061H86.2206C86.2206 298.825 86.1684 298.604 86.064 298.394C85.9595 298.179 85.7962 298.002 85.5743 297.865C85.3588 297.728 85.0715 297.659 84.7125 297.659C84.3926 297.659 84.1183 297.712 83.8898 297.816C83.6678 297.914 83.4948 298.051 83.3707 298.228C83.2532 298.404 83.1945 298.6 83.1945 298.816C83.1945 299.096 83.2957 299.341 83.4981 299.55C83.7004 299.753 84.0106 299.874 84.4284 299.913L85.0748 299.972C85.7734 300.037 86.3317 300.242 86.7495 300.589C87.1739 300.928 87.3861 301.392 87.3861 301.98C87.3861 302.385 87.2783 302.741 87.0629 303.048C86.8474 303.348 86.5438 303.583 86.1521 303.753C85.7604 303.924 85.2936 304.008 84.7516 304.008ZM84.3305 305.272V303.842H85.1727V305.272H84.3305ZM84.2913 297.336V295.906H85.1336V297.336H84.2913ZM89.3677 304.008L92.3939 297.748L92.3351 297.659H88.4276V296.856H93.2264V297.993L90.3471 304.008H89.3677ZM88.4276 298.796V296.856H89.211V298.796H88.4276ZM96.6758 304.185C96.1274 304.185 95.6638 304.073 95.2851 303.851C94.9064 303.623 94.6192 303.326 94.4233 302.96C94.2274 302.594 94.1295 302.205 94.1295 301.794H95.0501C95.0501 302.094 95.1153 302.362 95.2459 302.597C95.3831 302.833 95.5723 303.019 95.814 303.156C96.0555 303.293 96.3428 303.362 96.6758 303.362C97.0022 303.362 97.2862 303.297 97.5278 303.166C97.7759 303.028 97.9685 302.842 98.1056 302.607C98.2427 302.366 98.3113 302.094 98.3113 301.794C98.3113 301.494 98.2427 301.222 98.1056 300.981C97.975 300.739 97.7857 300.546 97.5376 300.403C97.296 300.259 97.0088 300.187 96.6758 300.187C96.4342 300.187 96.1893 300.23 95.9413 300.315C95.6931 300.393 95.494 300.507 95.3439 300.657H94.4821L94.8444 296.856H98.5953V297.659H95.3928L95.6279 297.336L95.3537 300.109L95.099 300.021C95.2883 299.831 95.5169 299.681 95.7846 299.57C96.0588 299.459 96.3689 299.403 96.715 299.403C97.2634 299.403 97.7237 299.517 98.0958 299.746C98.468 299.968 98.7487 300.259 98.9381 300.618C99.1339 300.971 99.2319 301.34 99.2319 301.725V301.863C99.2319 302.248 99.1339 302.621 98.9381 302.979C98.7422 303.332 98.4516 303.623 98.0665 303.851C97.6877 304.073 97.2242 304.185 96.6758 304.185ZM103.326 304.185C102.791 304.185 102.334 304.093 101.955 303.91C101.583 303.721 101.279 303.466 101.044 303.146C100.816 302.826 100.649 302.457 100.545 302.039C100.44 301.614 100.388 301.167 100.388 300.697V300.168C100.388 299.508 100.489 298.914 100.692 298.384C100.901 297.855 101.22 297.438 101.651 297.13C102.089 296.817 102.647 296.66 103.326 296.66C104.005 296.66 104.56 296.817 104.991 297.13C105.422 297.438 105.738 297.855 105.941 298.384C106.15 298.914 106.254 299.508 106.254 300.168V300.697C106.254 301.167 106.202 301.614 106.098 302.039C105.993 302.457 105.823 302.826 105.588 303.146C105.36 303.466 105.059 303.721 104.687 303.91C104.315 304.093 103.861 304.185 103.326 304.185ZM103.326 303.322C104.005 303.322 104.501 303.093 104.815 302.637C105.134 302.173 105.294 301.441 105.294 300.442C105.294 299.397 105.131 298.649 104.805 298.198C104.485 297.748 103.992 297.522 103.326 297.522C102.654 297.522 102.154 297.748 101.828 298.198C101.508 298.649 101.348 299.39 101.348 300.422C101.348 301.428 101.508 302.163 101.828 302.627C102.147 303.091 102.647 303.322 103.326 303.322Z" fill="#585757"/>
<path d="M110.522 300H401.655" stroke="#BFBFBF" stroke-dasharray="4 4"/>
<path d="M84.8777 353.886C84.3162 353.886 83.8396 353.794 83.4479 353.611C83.0561 353.421 82.7558 353.157 82.5469 352.818C82.3445 352.471 82.2433 352.067 82.2433 351.603H83.1247C83.1247 351.825 83.1769 352.05 83.2814 352.279C83.3924 352.508 83.5752 352.7 83.8298 352.857C84.0844 353.007 84.4337 353.082 84.8777 353.082C85.4653 353.082 85.8995 352.958 86.1802 352.71C86.4675 352.461 86.6112 352.177 86.6112 351.857C86.6112 351.544 86.4838 351.283 86.2292 351.074C85.9746 350.864 85.6057 350.737 85.1225 350.692L84.4762 350.633C83.8494 350.574 83.3499 350.384 82.9778 350.065C82.6056 349.745 82.4196 349.287 82.4196 348.693C82.4196 348.281 82.5175 347.932 82.7134 347.645C82.9157 347.351 83.1965 347.125 83.5556 346.969C83.9212 346.812 84.3489 346.733 84.8385 346.733C85.3282 346.733 85.7493 346.822 86.1019 346.998C86.461 347.168 86.7385 347.419 86.9343 347.752C87.1302 348.079 87.2281 348.474 87.2281 348.938H86.3467C86.3467 348.703 86.2945 348.481 86.19 348.272C86.0856 348.056 85.9223 347.88 85.7004 347.743C85.4849 347.605 85.1976 347.537 84.8385 347.537C84.5186 347.537 84.2444 347.589 84.0159 347.694C83.7939 347.792 83.6209 347.929 83.4968 348.105C83.3793 348.281 83.3206 348.477 83.3206 348.693C83.3206 348.973 83.4218 349.218 83.6241 349.428C83.8265 349.63 84.1367 349.751 84.5545 349.79L85.2009 349.849C85.8995 349.914 86.4578 350.12 86.8756 350.466C87.3 350.806 87.5122 351.27 87.5122 351.857C87.5122 352.263 87.4044 352.618 87.189 352.925C86.9735 353.226 86.6699 353.461 86.2782 353.631C85.8864 353.801 85.4196 353.886 84.8777 353.886ZM84.4566 355.149V353.719H85.2988V355.149H84.4566ZM84.4174 347.213V345.783H85.2597V347.213H84.4174ZM91.1783 354.062C90.6299 354.062 90.1663 353.951 89.7876 353.729C89.4089 353.5 89.1217 353.203 88.9258 352.837C88.7299 352.471 88.632 352.083 88.632 351.671H89.5526C89.5526 351.971 89.6178 352.24 89.7484 352.475C89.8856 352.71 90.0748 352.896 90.3165 353.033C90.558 353.17 90.8453 353.239 91.1783 353.239C91.5047 353.239 91.7887 353.174 92.0303 353.043C92.2784 352.906 92.471 352.72 92.6081 352.484C92.7452 352.243 92.8138 351.971 92.8138 351.671C92.8138 351.371 92.7452 351.1 92.6081 350.858C92.4775 350.617 92.2882 350.423 92.0401 350.28C91.7985 350.137 91.5113 350.065 91.1783 350.065C90.9367 350.065 90.6918 350.107 90.4438 350.192C90.1956 350.27 89.9965 350.384 89.8464 350.535H88.9846L89.3469 346.733H93.0978V347.537H89.8953L90.1304 347.213L89.8562 349.986L89.6015 349.898C89.7908 349.708 90.0194 349.559 90.2871 349.447C90.5613 349.336 90.8714 349.281 91.2175 349.281C91.7659 349.281 92.2262 349.395 92.5983 349.624C92.9705 349.845 93.2512 350.137 93.4406 350.496C93.6364 350.848 93.7344 351.217 93.7344 351.603V351.74C93.7344 352.126 93.6364 352.498 93.4406 352.857C93.2447 353.21 92.9541 353.5 92.569 353.729C92.1902 353.951 91.7267 354.062 91.1783 354.062ZM97.8285 354.062C97.2931 354.062 96.8361 353.97 96.4574 353.788C96.0853 353.598 95.7817 353.343 95.5466 353.023C95.3181 352.704 95.1516 352.334 95.0471 351.916C94.9427 351.491 94.8905 351.044 94.8905 350.574V350.045C94.8905 349.385 94.9917 348.791 95.194 348.262C95.403 347.733 95.7229 347.315 96.1538 347.008C96.5912 346.694 97.1494 346.537 97.8285 346.537C98.5075 346.537 99.0625 346.694 99.4934 347.008C99.9243 347.315 100.241 347.733 100.443 348.262C100.652 348.791 100.757 349.385 100.757 350.045V350.574C100.757 351.044 100.704 351.491 100.6 351.916C100.496 352.334 100.326 352.704 100.091 353.023C99.8622 353.343 99.5619 353.598 99.1898 353.788C98.8176 353.97 98.3638 354.062 97.8285 354.062ZM97.8285 353.2C98.5075 353.2 99.0037 352.971 99.3171 352.514C99.637 352.05 99.797 351.319 99.797 350.319C99.797 349.275 99.6338 348.526 99.3073 348.076C98.9874 347.625 98.4944 347.4 97.8285 347.4C97.156 347.4 96.6566 347.625 96.3301 348.076C96.0102 348.526 95.8502 349.267 95.8502 350.3C95.8502 351.305 96.0102 352.04 96.3301 352.504C96.65 352.968 97.1494 353.2 97.8285 353.2ZM105.107 354.062C104.571 354.062 104.114 353.97 103.736 353.788C103.363 353.598 103.06 353.343 102.825 353.023C102.596 352.704 102.43 352.334 102.325 351.916C102.221 351.491 102.169 351.044 102.169 350.574V350.045C102.169 349.385 102.27 348.791 102.472 348.262C102.681 347.733 103.001 347.315 103.432 347.008C103.869 346.694 104.428 346.537 105.107 346.537C105.786 346.537 106.341 346.694 106.772 347.008C107.202 347.315 107.519 347.733 107.721 348.262C107.93 348.791 108.035 349.385 108.035 350.045V350.574C108.035 351.044 107.983 351.491 107.878 351.916C107.774 352.334 107.604 352.704 107.369 353.023C107.14 353.343 106.84 353.598 106.468 353.788C106.096 353.97 105.642 354.062 105.107 354.062ZM105.107 353.2C105.786 353.2 106.282 352.971 106.595 352.514C106.915 352.05 107.075 351.319 107.075 350.319C107.075 349.275 106.912 348.526 106.585 348.076C106.266 347.625 105.773 347.4 105.107 347.4C104.434 347.4 103.935 347.625 103.608 348.076C103.288 348.526 103.128 349.267 103.128 350.3C103.128 351.305 103.288 352.04 103.608 352.504C103.928 352.968 104.428 353.2 105.107 353.2Z" fill="#585757"/>
<path d="M112.303 349.878H403.436" stroke="#BFBFBF" stroke-dasharray="4 4"/>
<path d="M85.2116 403.763C84.65 403.763 84.1735 403.671 83.7817 403.488C83.39 403.299 83.0897 403.034 82.8807 402.695C82.6783 402.348 82.5771 401.944 82.5771 401.48H83.4585C83.4585 401.702 83.5108 401.927 83.6152 402.156C83.7262 402.385 83.909 402.577 84.1637 402.734C84.4183 402.885 84.7676 402.959 85.2116 402.959C85.7992 402.959 86.2334 402.836 86.5141 402.587C86.8014 402.339 86.945 402.054 86.945 401.735C86.945 401.421 86.8177 401.16 86.5631 400.951C86.3084 400.742 85.9396 400.614 85.4564 400.569L84.81 400.51C84.1832 400.451 83.6838 400.261 83.3116 399.942C82.9395 399.622 82.7534 399.164 82.7534 398.57C82.7534 398.159 82.8513 397.809 83.0472 397.522C83.2496 397.228 83.5304 397.003 83.8894 396.846C84.2551 396.689 84.6827 396.611 85.1724 396.611C85.6621 396.611 86.0832 396.699 86.4357 396.875C86.7948 397.045 87.0723 397.296 87.2682 397.63C87.4641 397.956 87.562 398.351 87.562 398.815H86.6806C86.6806 398.58 86.6283 398.358 86.5239 398.149C86.4194 397.933 86.2562 397.757 86.0342 397.62C85.8188 397.483 85.5314 397.414 85.1724 397.414C84.8525 397.414 84.5783 397.467 84.3497 397.571C84.1278 397.669 83.9547 397.806 83.8307 397.982C83.7132 398.159 83.6544 398.355 83.6544 398.57C83.6544 398.851 83.7556 399.096 83.958 399.305C84.1604 399.507 84.4705 399.628 84.8884 399.667L85.5347 399.726C86.2334 399.791 86.7916 399.997 87.2094 400.343C87.6338 400.683 87.846 401.147 87.846 401.735C87.846 402.14 87.7383 402.495 87.5228 402.803C87.3074 403.103 87.0038 403.338 86.612 403.508C86.2203 403.678 85.7535 403.763 85.2116 403.763ZM84.7904 405.027V403.596H85.6327V405.027H84.7904ZM84.7513 397.091V395.66H85.5935V397.091H84.7513ZM89.1617 403.763V402.587C89.1617 402.299 89.2009 402.054 89.2792 401.852C89.3641 401.65 89.5077 401.467 89.7101 401.304C89.9125 401.133 90.1867 400.97 90.5328 400.814L91.8745 400.196C92.2009 400.046 92.4588 399.854 92.6482 399.618C92.8375 399.377 92.9322 399.066 92.9322 398.688C92.9322 398.231 92.8049 397.874 92.5502 397.62C92.2956 397.365 91.9365 397.238 91.473 397.238C91.0159 397.238 90.6568 397.365 90.3957 397.62C90.1345 397.874 90.0039 398.231 90.0039 398.688H89.0834C89.0834 398.276 89.1682 397.898 89.338 397.551C89.5143 397.205 89.7787 396.93 90.1313 396.728C90.4838 396.519 90.931 396.415 91.473 396.415C92.0148 396.415 92.4588 396.519 92.8049 396.728C93.1574 396.93 93.4186 397.198 93.5883 397.532C93.7646 397.865 93.8528 398.227 93.8528 398.619V398.756C93.8528 399.272 93.7026 399.707 93.4023 400.059C93.1085 400.412 92.7101 400.702 92.2075 400.931L90.8658 401.549C90.5654 401.686 90.363 401.823 90.2586 401.96C90.154 402.097 90.1019 402.28 90.1019 402.509V403.41L89.8472 402.959H93.9409V403.763H89.1617ZM97.5661 403.939C97.0177 403.939 96.5541 403.828 96.1754 403.606C95.7967 403.377 95.5095 403.08 95.3136 402.714C95.1177 402.348 95.0198 401.96 95.0198 401.549H95.9404C95.9404 401.849 96.0056 402.117 96.1363 402.352C96.2734 402.587 96.4626 402.773 96.7043 402.91C96.9458 403.048 97.2331 403.116 97.5661 403.116C97.8925 403.116 98.1765 403.051 98.4181 402.92C98.6662 402.783 98.8588 402.597 98.9959 402.362C99.133 402.12 99.2016 401.849 99.2016 401.549C99.2016 401.248 99.133 400.977 98.9959 400.735C98.8653 400.494 98.676 400.301 98.4279 400.157C98.1863 400.014 97.8991 399.942 97.5661 399.942C97.3245 399.942 97.0796 399.984 96.8316 400.069C96.5835 400.147 96.3843 400.261 96.2342 400.412H95.3724L95.7347 396.611H99.4856V397.414H96.2832L96.5182 397.091L96.244 399.863L95.9893 399.775C96.1786 399.585 96.4072 399.436 96.6749 399.324C96.9491 399.213 97.2592 399.158 97.6053 399.158C98.1537 399.158 98.614 399.272 98.9861 399.501C99.3583 399.723 99.639 400.014 99.8284 400.373C100.024 400.726 100.122 401.094 100.122 401.48V401.617C100.122 402.003 100.024 402.375 99.8284 402.734C99.6325 403.087 99.3419 403.377 98.9568 403.606C98.578 403.828 98.1145 403.939 97.5661 403.939ZM104.216 403.939C103.681 403.939 103.224 403.847 102.845 403.665C102.473 403.475 102.169 403.22 101.934 402.901C101.706 402.581 101.539 402.211 101.435 401.793C101.331 401.369 101.278 400.921 101.278 400.451V399.922C101.278 399.262 101.379 398.668 101.582 398.139C101.791 397.61 102.111 397.192 102.542 396.885C102.979 396.571 103.537 396.415 104.216 396.415C104.895 396.415 105.45 396.571 105.881 396.885C106.312 397.192 106.629 397.61 106.831 398.139C107.04 398.668 107.145 399.262 107.145 399.922V400.451C107.145 400.921 107.092 401.369 106.988 401.793C106.883 402.211 106.714 402.581 106.479 402.901C106.25 403.22 105.95 403.475 105.578 403.665C105.205 403.847 104.752 403.939 104.216 403.939ZM104.216 403.077C104.895 403.077 105.392 402.848 105.705 402.391C106.025 401.927 106.185 401.196 106.185 400.196C106.185 399.152 106.022 398.404 105.695 397.953C105.375 397.502 104.882 397.277 104.216 397.277C103.544 397.277 103.044 397.502 102.718 397.953C102.398 398.404 102.238 399.145 102.238 400.177C102.238 401.182 102.398 401.917 102.718 402.381C103.038 402.845 103.537 403.077 104.216 403.077Z" fill="#585757"/>
<path d="M111.413 399.755H402.545" stroke="#BFBFBF" stroke-dasharray="4 4"/>
<path d="M155.483 247.004C155.483 243.069 152.294 239.878 148.361 239.878C144.427 239.878 141.238 243.069 141.238 247.004V402.872C141.238 406.807 144.427 409.997 148.361 409.997C152.294 409.997 155.483 406.807 155.483 402.872V247.004Z" fill="#1163C2"/>
<path d="M155.483 247.004C155.483 243.069 152.294 239.878 148.361 239.878C144.427 239.878 141.238 243.069 141.238 247.004V402.872C141.238 406.807 144.427 409.997 148.361 409.997C152.294 409.997 155.483 406.807 155.483 402.872V247.004Z" fill="white" fill-opacity="0.4"/>
<path d="M138.748 427.811L141.558 420.008H143.331L146.227 427.811H145.148L142.53 420.692L143.043 420.949H141.782L142.327 420.692L139.795 427.811H138.748ZM140.425 425.481L140.778 424.54H144.143L144.496 425.481H140.425ZM147.507 429.948V422.103H148.319V424.572L148.127 424.551C148.162 423.938 148.291 423.439 148.512 423.055C148.739 422.663 149.035 422.374 149.398 422.189C149.761 422.004 150.157 421.911 150.584 421.911C150.997 421.911 151.371 421.989 151.706 422.146C152.048 422.303 152.34 422.517 152.582 422.787C152.824 423.058 153.009 423.372 153.138 423.728C153.266 424.084 153.33 424.462 153.33 424.861V425.053C153.33 425.452 153.262 425.83 153.127 426.186C152.992 426.542 152.799 426.856 152.55 427.127C152.308 427.397 152.016 427.611 151.674 427.768C151.339 427.925 150.969 428.003 150.563 428.003C150.157 428.003 149.769 427.914 149.398 427.736C149.028 427.558 148.722 427.269 148.479 426.87C148.237 426.471 148.098 425.947 148.063 425.299L148.533 426.154V429.948H147.507ZM150.403 427.105C150.787 427.105 151.122 427.016 151.407 426.838C151.692 426.653 151.912 426.4 152.069 426.079C152.226 425.751 152.304 425.377 152.304 424.957C152.304 424.529 152.226 424.155 152.069 423.835C151.912 423.514 151.692 423.265 151.407 423.087C151.122 422.901 150.787 422.809 150.403 422.809C150.061 422.809 149.744 422.887 149.452 423.044C149.16 423.193 148.925 423.414 148.747 423.707C148.576 423.992 148.49 424.337 148.49 424.743V425.235C148.49 425.627 148.579 425.962 148.757 426.24C148.935 426.517 149.17 426.731 149.462 426.881C149.754 427.03 150.068 427.105 150.403 427.105ZM154.873 427.811V422.103H155.685V424.455H155.642C155.642 423.621 155.824 423.012 156.187 422.627C156.558 422.235 157.11 422.039 157.843 422.039H158.036V422.958H157.672C157.103 422.958 156.665 423.112 156.358 423.418C156.052 423.717 155.899 424.152 155.899 424.722V427.811H154.873Z" fill="#585757"/>
<path d="M212.463 287.975C212.463 284.039 209.274 280.849 205.341 280.849C201.407 280.849 198.218 284.039 198.218 287.975V402.871C198.218 406.807 201.407 409.997 205.341 409.997C209.274 409.997 212.463 406.807 212.463 402.871V287.975Z" fill="#1163C2"/>
<path d="M212.463 287.975C212.463 284.039 209.274 280.849 205.341 280.849C201.407 280.849 198.218 284.039 198.218 287.975V402.871C198.218 406.807 201.407 409.997 205.341 409.997C209.274 409.997 212.463 406.807 212.463 402.871V287.975Z" fill="white" fill-opacity="0.4"/>
<path d="M195.576 427.811V420.008H196.965L199.272 425.214H199.443L201.74 420.008H203.14V427.811H202.093V421.152L202.168 421.173L199.956 426.197H198.674L196.452 421.173L196.537 421.152V427.811H195.576ZM208.705 427.811V426.101H208.534V424.123C208.534 423.731 208.431 423.436 208.224 423.236C208.025 423.037 207.729 422.937 207.338 422.937C207.117 422.937 206.889 422.941 206.654 422.948C206.419 422.955 206.195 422.962 205.981 422.969C205.767 422.976 205.582 422.987 205.425 423.001V422.103C205.582 422.089 205.746 422.078 205.917 422.071C206.095 422.057 206.276 422.05 206.462 422.05C206.647 422.043 206.825 422.039 206.996 422.039C207.58 422.039 208.057 422.11 208.427 422.253C208.798 422.388 209.072 422.613 209.25 422.926C209.428 423.24 209.517 423.664 209.517 424.198V427.811H208.705ZM206.836 427.96C206.408 427.96 206.038 427.889 205.724 427.747C205.418 427.597 205.18 427.383 205.009 427.105C204.845 426.827 204.763 426.493 204.763 426.101C204.763 425.694 204.852 425.356 205.03 425.085C205.215 424.815 205.482 424.611 205.831 424.476C206.18 424.334 206.601 424.262 207.092 424.262H208.641V425.032H207.049C206.636 425.032 206.319 425.132 206.098 425.331C205.878 425.531 205.767 425.787 205.767 426.101C205.767 426.414 205.878 426.667 206.098 426.859C206.319 427.052 206.636 427.148 207.049 427.148C207.291 427.148 207.523 427.105 207.744 427.02C207.964 426.927 208.146 426.778 208.289 426.571C208.438 426.357 208.52 426.065 208.534 425.694L208.812 426.101C208.776 426.507 208.677 426.849 208.513 427.127C208.356 427.397 208.135 427.604 207.851 427.747C207.573 427.889 207.234 427.96 206.836 427.96ZM210.994 430.034V429.115H211.817C212.059 429.115 212.262 429.083 212.426 429.018C212.597 428.961 212.736 428.862 212.842 428.719C212.956 428.577 213.049 428.388 213.12 428.153L214.915 422.103H215.919L214.018 428.42C213.904 428.798 213.743 429.104 213.537 429.339C213.33 429.581 213.078 429.756 212.778 429.863C212.486 429.977 212.144 430.034 211.753 430.034H210.994ZM212.736 427.682V426.827H213.975V427.682H212.736ZM212.629 427.682L210.588 422.103H211.635L213.59 427.682H212.629Z" fill="#585757"/>
<path d="M269.443 313.804C269.443 309.869 266.254 306.679 262.321 306.679C258.387 306.679 255.198 309.869 255.198 313.804V402.872C255.198 406.807 258.387 409.997 262.321 409.997C266.254 409.997 269.443 406.807 269.443 402.872V313.804Z" fill="#1163C2"/>
<path d="M269.443 313.804C269.443 309.869 266.254 306.679 262.321 306.679C258.387 306.679 255.198 309.869 255.198 313.804V402.872C255.198 406.807 258.387 409.997 262.321 409.997C266.254 409.997 269.443 406.807 269.443 402.872V313.804Z" fill="white" fill-opacity="0.4"/>
<path d="M255.253 428.003C254.747 428.003 254.288 427.896 253.874 427.682C253.461 427.469 253.134 427.152 252.892 426.731C252.656 426.311 252.539 425.787 252.539 425.16V424.893H253.586V425.352C253.586 425.887 253.743 426.304 254.056 426.603C254.369 426.895 254.768 427.041 255.253 427.041C255.737 427.041 256.136 426.895 256.449 426.603C256.763 426.304 256.919 425.887 256.919 425.352V420.735H257.966V425.16C257.966 425.787 257.845 426.311 257.603 426.731C257.368 427.152 257.044 427.469 256.631 427.682C256.225 427.896 255.765 428.003 255.253 428.003ZM253.565 420.949V420.008H257.966V420.949H253.565ZM261.926 427.982C261.249 427.982 260.729 427.761 260.366 427.319C260.002 426.877 259.821 426.24 259.821 425.406V422.093H260.846V425.609C260.846 426.058 260.968 426.411 261.21 426.667C261.452 426.916 261.78 427.041 262.193 427.041C262.62 427.041 262.969 426.906 263.24 426.635C263.51 426.357 263.646 425.979 263.646 425.502V422.093H264.671V427.811H263.859V425.363H263.987C263.987 425.926 263.913 426.403 263.763 426.795C263.614 427.18 263.389 427.476 263.09 427.682C262.798 427.882 262.424 427.982 261.968 427.982H261.926ZM266.658 427.811V422.103H267.47V424.551H267.342C267.342 423.988 267.417 423.514 267.567 423.129C267.723 422.737 267.958 422.442 268.272 422.242C268.585 422.036 268.98 421.932 269.458 421.932H269.5C270.22 421.932 270.75 422.157 271.092 422.606C271.441 423.055 271.616 423.703 271.616 424.551V427.811H270.59V424.337C270.59 423.895 270.465 423.543 270.216 423.279C269.967 423.008 269.625 422.873 269.19 422.873C268.742 422.873 268.379 423.012 268.101 423.29C267.823 423.568 267.684 423.938 267.684 424.401V427.811H266.658Z" fill="#585757"/>
<path d="M323.752 344.087C323.752 340.152 320.564 336.961 316.63 336.961C312.696 336.961 309.507 340.152 309.507 344.087V402.871C309.507 406.807 312.696 409.997 316.63 409.997C320.564 409.997 323.752 406.807 323.752 402.871V344.087Z" fill="#1163C2"/>
<path d="M323.752 344.087C323.752 340.152 320.564 336.961 316.63 336.961C312.696 336.961 309.507 340.152 309.507 344.087V402.871C309.507 406.807 312.696 409.997 316.63 409.997C320.564 409.997 323.752 406.807 323.752 402.871V344.087Z" fill="white" fill-opacity="0.4"/>
<path d="M311.45 428.003C310.944 428.003 310.485 427.896 310.072 427.682C309.659 427.469 309.331 427.152 309.089 426.731C308.854 426.311 308.736 425.787 308.736 425.16V424.893H309.783V425.352C309.783 425.887 309.94 426.304 310.254 426.603C310.567 426.895 310.966 427.041 311.45 427.041C311.934 427.041 312.333 426.895 312.647 426.603C312.96 426.304 313.117 425.887 313.117 425.352V420.735H314.164V425.16C314.164 425.787 314.043 426.311 313.801 426.731C313.566 427.152 313.241 427.469 312.828 427.682C312.422 427.896 311.963 428.003 311.45 428.003ZM309.762 420.949V420.008H314.164V420.949H309.762ZM318.124 427.982C317.447 427.982 316.927 427.761 316.564 427.319C316.201 426.877 316.019 426.24 316.019 425.406V422.093H317.045V425.609C317.045 426.058 317.166 426.411 317.408 426.667C317.65 426.916 317.978 427.041 318.391 427.041C318.818 427.041 319.167 426.906 319.438 426.635C319.709 426.357 319.844 425.979 319.844 425.502V422.093H320.87V427.811H320.058V425.363H320.186C320.186 425.926 320.111 426.403 319.962 426.795C319.812 427.18 319.588 427.476 319.288 427.682C318.996 427.882 318.623 427.982 318.167 427.982H318.124ZM322.92 427.811V420.008H323.946V427.811H322.92ZM322.129 420.821V420.008H323.946V420.821H322.129Z" fill="#585757"/>
<path d="M378.952 293.319C378.952 289.384 375.763 286.193 371.829 286.193C367.896 286.193 364.707 289.384 364.707 293.319V402.872C364.707 406.807 367.896 409.997 371.829 409.997C375.763 409.997 378.952 406.807 378.952 402.872V293.319Z" fill="#0553AD"/>
<path d="M361.164 427.811L363.973 420.008H365.747L368.642 427.811H367.563L364.946 420.692L365.458 420.949H364.198L364.743 420.692L362.211 427.811H361.164ZM362.841 425.481L363.193 424.54H366.559L366.911 425.481H362.841ZM371.837 427.982C371.16 427.982 370.64 427.761 370.277 427.319C369.914 426.877 369.732 426.24 369.732 425.406V422.093H370.758V425.609C370.758 426.058 370.879 426.411 371.121 426.667C371.363 426.916 371.691 427.041 372.104 427.041C372.531 427.041 372.88 426.906 373.151 426.635C373.421 426.357 373.557 425.979 373.557 425.502V422.093H374.582V427.811H373.77V425.363H373.899C373.899 425.926 373.824 426.403 373.674 426.795C373.525 427.18 373.3 427.476 373.001 427.682C372.709 427.882 372.335 427.982 371.879 427.982H371.837ZM378.727 430.034C378.463 430.034 378.196 430.023 377.925 430.002C377.662 429.98 377.409 429.952 377.167 429.916V429.051C377.423 429.086 377.69 429.115 377.968 429.136C378.253 429.165 378.52 429.179 378.77 429.179C379.289 429.179 379.703 429.108 380.009 428.965C380.322 428.83 380.547 428.612 380.682 428.313C380.824 428.021 380.896 427.643 380.896 427.18V426.09L381.237 425.278C381.216 425.855 381.095 426.336 380.874 426.721C380.653 427.098 380.365 427.383 380.009 427.576C379.66 427.761 379.272 427.853 378.844 427.853C378.445 427.853 378.079 427.779 377.744 427.629C377.416 427.472 377.131 427.259 376.889 426.988C376.654 426.717 376.469 426.407 376.334 426.058C376.205 425.702 376.141 425.328 376.141 424.936V424.743C376.141 424.344 376.209 423.974 376.344 423.632C376.48 423.283 376.668 422.98 376.911 422.723C377.153 422.467 377.441 422.267 377.776 422.125C378.118 421.982 378.492 421.911 378.898 421.911C379.375 421.911 379.795 422.014 380.158 422.221C380.522 422.42 380.807 422.716 381.013 423.108C381.227 423.493 381.344 423.967 381.366 424.529L381.066 424.54V422.103H381.878V427.137C381.878 427.821 381.772 428.374 381.558 428.794C381.351 429.222 381.017 429.535 380.554 429.735C380.098 429.934 379.489 430.034 378.727 430.034ZM379.037 426.913C379.378 426.913 379.688 426.838 379.966 426.688C380.251 426.539 380.475 426.325 380.639 426.047C380.81 425.762 380.896 425.424 380.896 425.032V424.54C380.896 424.155 380.807 423.831 380.628 423.568C380.458 423.304 380.233 423.104 379.955 422.969C379.678 422.834 379.375 422.766 379.047 422.766C378.677 422.766 378.349 422.851 378.064 423.022C377.779 423.193 377.559 423.436 377.402 423.749C377.245 424.056 377.167 424.419 377.167 424.839C377.167 425.26 377.245 425.627 377.402 425.94C377.566 426.254 377.787 426.496 378.064 426.667C378.349 426.831 378.673 426.913 379.037 426.913Z" fill="#585757"/>
<path d="M371.83 443.843C373.305 443.843 374.5 442.647 374.5 441.171C374.5 439.695 373.305 438.499 371.83 438.499C370.354 438.499 369.159 439.695 369.159 441.171C369.159 442.647 370.354 443.843 371.83 443.843Z" fill="#0553AD"/>
<path d="M96.3823 131.307C94.4853 131.307 92.8911 131.025 91.5995 130.459C90.3281 129.874 89.3595 129.057 88.6935 128.006C88.0478 126.937 87.7248 125.675 87.7248 124.221H91.5995C91.5995 124.847 91.7609 125.442 92.0838 126.008C92.4067 126.573 92.9112 127.037 93.5974 127.401C94.3036 127.744 95.232 127.916 96.3823 127.916C97.8958 127.916 99.0461 127.623 99.8331 127.037C100.62 126.452 101.014 125.725 101.014 124.857C101.014 124.07 100.671 123.413 99.9845 122.889C99.3185 122.364 98.2792 122.041 96.8666 121.92L95.1714 121.768C93.0928 121.566 91.4381 120.941 90.207 119.891C88.976 118.821 88.3605 117.307 88.3605 115.348C88.3605 113.995 88.6632 112.855 89.2686 111.926C89.8943 110.997 90.7822 110.301 91.9325 109.837C93.103 109.352 94.4853 109.11 96.0795 109.11C97.7344 109.11 99.1369 109.382 100.287 109.928C101.458 110.473 102.346 111.26 102.951 112.29C103.577 113.299 103.889 114.531 103.889 115.984H100.015C100.015 115.358 99.8634 114.783 99.5607 114.258C99.2782 113.733 98.8442 113.309 98.259 112.986C97.694 112.663 96.9675 112.502 96.0795 112.502C95.2723 112.502 94.5862 112.623 94.0211 112.865C93.4561 113.107 93.0222 113.44 92.7195 113.864C92.4168 114.288 92.2654 114.783 92.2654 115.348C92.2654 116.055 92.5177 116.681 93.0222 117.226C93.5469 117.771 94.3844 118.094 95.5347 118.195L97.2298 118.346C99.5506 118.548 101.407 119.194 102.8 120.284C104.212 121.374 104.919 122.898 104.919 124.857C104.919 126.21 104.576 127.371 103.889 128.34C103.223 129.288 102.255 130.026 100.983 130.55C99.712 131.055 98.1783 131.307 96.3823 131.307ZM94.5357 135.123V130.702H98.0471V135.123H94.5357ZM94.4147 110.594V106.172H97.9261V110.594H94.4147ZM110.115 131.216L118.379 113.047L118.106 112.653H106.906V109.11H123.01V112.38L114.625 131.216H110.115ZM106.906 116.196V109.11H110.387V116.196H106.906ZM134.119 131.852C132.485 131.852 131.092 131.58 129.942 131.035C128.812 130.469 127.894 129.702 127.187 128.733C126.481 127.764 125.967 126.644 125.644 125.372C125.321 124.079 125.159 122.717 125.159 121.284V119.951C125.159 116.338 126.067 113.602 127.884 111.745C129.72 109.867 132.404 108.928 135.936 108.928C136.703 108.928 137.419 108.949 138.085 108.989C138.751 109.029 139.417 109.089 140.083 109.17V112.774C139.417 112.693 138.731 112.633 138.024 112.592C137.338 112.552 136.592 112.532 135.784 112.532C134.089 112.532 132.757 112.825 131.789 113.41C130.82 113.995 130.124 114.854 129.7 115.984C129.296 117.114 129.095 118.518 129.095 120.193V122.162L128.126 123.555C128.146 122.001 128.449 120.718 129.034 119.709C129.639 118.679 130.467 117.912 131.516 117.407C132.566 116.883 133.766 116.62 135.118 116.62C136.692 116.62 138.034 116.933 139.144 117.559C140.254 118.185 141.102 119.053 141.687 120.163C142.293 121.274 142.595 122.565 142.595 124.039C142.595 125.574 142.252 126.937 141.566 128.128C140.88 129.299 139.901 130.217 138.63 130.883C137.379 131.529 135.875 131.852 134.119 131.852ZM134.029 128.249C134.977 128.249 135.784 128.077 136.45 127.734C137.116 127.371 137.621 126.876 137.964 126.25C138.307 125.624 138.478 124.908 138.478 124.1C138.478 123.273 138.307 122.546 137.964 121.92C137.641 121.293 137.157 120.809 136.511 120.466C135.865 120.123 135.088 119.951 134.18 119.951C133.312 119.951 132.515 120.112 131.789 120.436C131.082 120.739 130.517 121.203 130.093 121.829C129.69 122.434 129.488 123.191 129.488 124.1C129.488 124.887 129.649 125.594 129.972 126.22C130.315 126.846 130.82 127.34 131.486 127.704C132.172 128.067 133.02 128.249 134.029 128.249ZM154.886 131.792C153.15 131.792 151.677 131.509 150.467 130.944C149.256 130.359 148.267 129.571 147.5 128.582C146.733 127.573 146.168 126.422 145.805 125.13C145.462 123.818 145.29 122.444 145.29 121.011V119.315C145.29 117.277 145.633 115.439 146.319 113.804C147.006 112.168 148.055 110.876 149.468 109.928C150.88 108.959 152.686 108.474 154.886 108.474C157.065 108.474 158.862 108.959 160.274 109.928C161.687 110.876 162.726 112.168 163.392 113.804C164.078 115.439 164.421 117.277 164.421 119.315V121.011C164.421 122.444 164.239 123.818 163.876 125.13C163.533 126.422 162.979 127.573 162.211 128.582C161.465 129.571 160.486 130.359 159.275 130.944C158.064 131.509 156.601 131.792 154.886 131.792ZM154.886 127.855C156.682 127.855 158.004 127.24 158.851 126.008C159.699 124.756 160.123 122.818 160.123 120.193C160.123 117.407 159.689 115.419 158.821 114.228C157.954 113.016 156.641 112.411 154.886 112.411C153.11 112.411 151.778 113.016 150.89 114.228C150.023 115.419 149.589 117.387 149.589 120.133C149.589 122.777 150.023 124.726 150.89 125.977C151.758 127.229 153.09 127.855 154.886 127.855Z" fill="#111922"/>
<path d="M249.411 141.905H90.045C88.0781 141.905 86.4837 143.5 86.4837 145.467V159.718C86.4837 161.686 88.0781 163.281 90.045 163.281H249.411C251.378 163.281 252.972 161.686 252.972 159.718V145.467C252.972 143.5 251.378 141.905 249.411 141.905Z" fill="white"/>
<path d="M94.5233 155.47L99.7267 150.265" stroke="#E75160"/>
<path d="M96.0986 150.107L99.7311 150.271L100.041 154.051" stroke="#E75160"/>
<path d="M97.1675 158.085C100.2 158.085 102.658 155.626 102.658 152.593C102.658 149.559 100.2 147.1 97.1675 147.1C94.1353 147.1 91.6772 149.559 91.6772 152.593C91.6772 155.626 94.1353 158.085 97.1675 158.085Z" stroke="#E75160"/>
<path d="M108.325 155.163V153.243L111.89 147.694L113.223 148.604L110.082 153.517L110.232 153.767H115.816V155.163H108.325ZM113.086 157.046V150.525H114.719V157.046H113.086ZM120.828 157.283C120.113 157.283 119.507 157.166 119.008 156.934C118.51 156.692 118.103 156.368 117.787 155.961C117.471 155.545 117.238 155.071 117.089 154.54C116.948 153.999 116.877 153.434 116.877 152.844V152.146C116.877 151.306 117.018 150.549 117.301 149.876C117.583 149.203 118.015 148.671 118.597 148.28C119.179 147.881 119.922 147.682 120.828 147.682C121.725 147.682 122.465 147.881 123.047 148.28C123.628 148.671 124.056 149.203 124.331 149.876C124.613 150.549 124.754 151.306 124.754 152.146V152.844C124.754 153.434 124.68 153.999 124.53 154.54C124.389 155.071 124.16 155.545 123.844 155.961C123.537 156.368 123.134 156.692 122.635 156.934C122.137 157.166 121.534 157.283 120.828 157.283ZM120.828 155.662C121.568 155.662 122.112 155.408 122.461 154.901C122.81 154.386 122.984 153.588 122.984 152.507C122.984 151.36 122.806 150.541 122.448 150.051C122.091 149.552 121.551 149.303 120.828 149.303C120.097 149.303 119.548 149.552 119.183 150.051C118.825 150.541 118.647 151.352 118.647 152.482C118.647 153.572 118.825 154.373 119.183 154.889C119.54 155.405 120.089 155.662 120.828 155.662ZM126.236 157.046V155.051H128.18V157.046H126.236ZM131.179 157.046V149.041L131.727 149.465H129.321V147.943H132.936V157.046H131.179ZM137.271 157.046L140.624 147.943H142.058L138.705 157.046H137.271ZM136.623 152.906C136.141 152.906 135.742 152.798 135.427 152.582C135.111 152.358 134.874 152.063 134.716 151.697C134.567 151.331 134.492 150.932 134.492 150.5V150.175C134.492 149.702 134.571 149.286 134.729 148.928C134.886 148.562 135.123 148.28 135.439 148.081C135.763 147.873 136.158 147.769 136.623 147.769C137.105 147.769 137.504 147.873 137.82 148.081C138.136 148.28 138.372 148.562 138.53 148.928C138.688 149.286 138.767 149.702 138.767 150.175V150.5C138.767 150.932 138.688 151.331 138.53 151.697C138.381 152.063 138.148 152.358 137.832 152.582C137.525 152.798 137.122 152.906 136.623 152.906ZM136.623 151.747C136.922 151.747 137.143 151.639 137.284 151.422C137.433 151.198 137.508 150.841 137.508 150.35C137.508 149.818 137.433 149.448 137.284 149.24C137.134 149.033 136.914 148.928 136.623 148.928C136.332 148.928 136.112 149.033 135.963 149.24C135.821 149.448 135.751 149.814 135.751 150.338C135.751 150.828 135.821 151.185 135.963 151.41C136.112 151.634 136.332 151.747 136.623 151.747ZM142.643 157.233C142.162 157.233 141.763 157.125 141.447 156.909C141.131 156.684 140.894 156.39 140.736 156.024C140.587 155.658 140.512 155.258 140.512 154.827V154.502C140.512 154.028 140.591 153.613 140.749 153.255C140.907 152.889 141.144 152.607 141.459 152.407C141.783 152.2 142.178 152.096 142.643 152.096C143.125 152.096 143.524 152.2 143.84 152.407C144.156 152.607 144.393 152.889 144.551 153.255C144.708 153.613 144.787 154.028 144.787 154.502V154.827C144.787 155.258 144.708 155.658 144.551 156.024C144.401 156.39 144.168 156.684 143.853 156.909C143.545 157.125 143.142 157.233 142.643 157.233ZM142.643 156.073C142.943 156.073 143.163 155.966 143.304 155.749C143.454 155.525 143.528 155.168 143.528 154.677C143.528 154.145 143.454 153.775 143.304 153.567C143.155 153.36 142.934 153.255 142.643 153.255C142.353 153.255 142.132 153.36 141.983 153.567C141.842 153.775 141.771 154.141 141.771 154.664C141.771 155.155 141.842 155.512 141.983 155.737C142.132 155.961 142.353 156.073 142.643 156.073Z" fill="#E75160"/>
<path d="M150.127 157.046V150.051C150.127 149.311 150.322 148.766 150.713 148.417C151.103 148.068 151.677 147.894 152.433 147.894H153.256V148.891H152.233C151.926 148.891 151.689 148.978 151.523 149.153C151.357 149.32 151.274 149.552 151.274 149.851V157.046H150.127ZM149.205 151.36V150.462H153.38V151.36H149.205ZM154.651 157.046V150.387H155.598V153.131H155.548C155.548 152.158 155.76 151.447 156.184 150.998C156.616 150.542 157.26 150.313 158.116 150.313H158.34V151.385H157.916C157.252 151.385 156.741 151.564 156.383 151.921C156.026 152.27 155.847 152.777 155.847 153.442V157.046H154.651ZM162.757 157.271C162.175 157.271 161.664 157.171 161.224 156.971C160.783 156.772 160.409 156.51 160.102 156.186C159.803 155.854 159.574 155.483 159.416 155.076C159.267 154.669 159.192 154.253 159.192 153.829V153.605C159.192 153.181 159.27 152.765 159.429 152.358C159.587 151.942 159.819 151.572 160.127 151.248C160.434 150.916 160.808 150.654 161.249 150.462C161.689 150.263 162.192 150.163 162.757 150.163C163.321 150.163 163.824 150.263 164.265 150.462C164.705 150.654 165.079 150.916 165.387 151.248C165.694 151.572 165.926 151.942 166.085 152.358C166.243 152.765 166.322 153.181 166.322 153.605V153.829C166.322 154.253 166.243 154.669 166.085 155.076C165.935 155.483 165.707 155.854 165.399 156.186C165.1 156.51 164.73 156.772 164.29 156.971C163.849 157.171 163.338 157.271 162.757 157.271ZM162.757 156.198C163.256 156.198 163.679 156.09 164.028 155.874C164.385 155.65 164.655 155.35 164.838 154.976C165.029 154.602 165.124 154.183 165.124 153.717C165.124 153.243 165.029 152.819 164.838 152.445C164.647 152.071 164.373 151.776 164.016 151.56C163.667 151.343 163.247 151.235 162.757 151.235C162.274 151.235 161.855 151.343 161.498 151.56C161.14 151.776 160.866 152.071 160.675 152.445C160.484 152.819 160.389 153.243 160.389 153.717C160.389 154.183 160.48 154.602 160.663 154.976C160.853 155.35 161.124 155.65 161.473 155.874C161.83 156.09 162.258 156.198 162.757 156.198ZM168.113 157.046V150.387H169.06V153.243H168.911C168.911 152.595 168.994 152.046 169.16 151.597C169.335 151.14 169.593 150.791 169.933 150.55C170.274 150.308 170.706 150.188 171.229 150.188H171.279C171.803 150.188 172.235 150.308 172.575 150.55C172.924 150.791 173.183 151.14 173.348 151.597C173.515 152.046 173.597 152.595 173.597 153.243H173.248C173.248 152.595 173.336 152.046 173.51 151.597C173.685 151.14 173.943 150.791 174.283 150.55C174.632 150.308 175.068 150.188 175.592 150.188H175.642C176.165 150.188 176.601 150.308 176.95 150.55C177.299 150.791 177.558 151.14 177.723 151.597C177.898 152.046 177.985 152.595 177.985 153.243V157.046H176.788V152.981C176.788 152.44 176.656 152.025 176.389 151.734C176.124 151.435 175.754 151.285 175.28 151.285C174.79 151.285 174.395 151.443 174.096 151.759C173.797 152.066 173.647 152.499 173.647 153.056V157.046H172.451V152.981C172.451 152.44 172.318 152.025 172.052 151.734C171.787 151.435 171.416 151.285 170.943 151.285C170.453 151.285 170.058 151.443 169.758 151.759C169.459 152.066 169.31 152.499 169.31 153.056V157.046H168.113ZM183.087 157.046V147.943H184.284V157.046H183.087ZM182.165 148.891V147.943H184.284V148.891H182.165ZM190.605 157.046V155.051H190.406V152.744C190.406 152.287 190.285 151.942 190.044 151.709C189.811 151.477 189.466 151.36 189.01 151.36C188.751 151.36 188.486 151.365 188.212 151.373C187.938 151.381 187.676 151.389 187.427 151.397C187.177 151.405 186.961 151.418 186.779 151.435V150.387C186.961 150.371 187.152 150.358 187.352 150.35C187.559 150.333 187.771 150.325 187.988 150.325C188.203 150.317 188.411 150.313 188.611 150.313C189.292 150.313 189.848 150.395 190.281 150.562C190.713 150.72 191.032 150.982 191.241 151.348C191.448 151.714 191.552 152.208 191.552 152.831V157.046H190.605ZM188.424 157.221C187.925 157.221 187.493 157.138 187.128 156.971C186.77 156.797 186.492 156.547 186.292 156.223C186.101 155.899 186.006 155.508 186.006 155.051C186.006 154.577 186.109 154.183 186.317 153.866C186.533 153.55 186.844 153.313 187.252 153.156C187.659 152.989 188.15 152.906 188.723 152.906H190.53V153.804H188.673C188.191 153.804 187.821 153.921 187.564 154.153C187.306 154.386 187.177 154.685 187.177 155.051C187.177 155.417 187.306 155.712 187.564 155.936C187.821 156.161 188.191 156.273 188.673 156.273C188.955 156.273 189.225 156.223 189.483 156.123C189.741 156.016 189.952 155.841 190.119 155.6C190.293 155.35 190.389 155.009 190.406 154.577L190.73 155.051C190.688 155.525 190.571 155.924 190.381 156.248C190.197 156.564 189.94 156.805 189.608 156.971C189.284 157.138 188.889 157.221 188.424 157.221ZM195.929 157.246C195.057 157.246 194.38 157.059 193.897 156.684C193.424 156.31 193.179 155.799 193.162 155.151H194.284C194.301 155.408 194.43 155.654 194.67 155.886C194.92 156.111 195.34 156.223 195.929 156.223C196.462 156.223 196.868 156.119 197.151 155.911C197.434 155.695 197.574 155.433 197.574 155.126C197.574 154.851 197.471 154.64 197.263 154.49C197.055 154.332 196.719 154.228 196.253 154.178L195.53 154.103C194.899 154.037 194.384 153.849 193.985 153.542C193.586 153.226 193.386 152.786 193.386 152.22C193.386 151.796 193.495 151.435 193.711 151.136C193.927 150.828 194.226 150.595 194.608 150.437C194.991 150.271 195.431 150.188 195.929 150.188C196.677 150.188 197.284 150.354 197.749 150.687C198.215 151.019 198.456 151.514 198.472 152.171H197.35C197.342 151.904 197.217 151.68 196.976 151.497C196.744 151.306 196.395 151.21 195.929 151.21C195.464 151.21 195.111 151.306 194.87 151.497C194.629 151.689 194.508 151.929 194.508 152.22C194.508 152.47 194.592 152.669 194.758 152.819C194.932 152.969 195.215 153.064 195.605 153.106L196.328 153.181C197.043 153.255 197.616 153.455 198.048 153.779C198.481 154.095 198.696 154.544 198.696 155.126C198.696 155.542 198.576 155.911 198.335 156.236C198.102 156.552 197.778 156.801 197.363 156.984C196.948 157.158 196.47 157.246 195.929 157.246ZM203.023 157.121C202.525 157.121 202.093 157.051 201.727 156.909C201.37 156.767 201.091 156.527 200.892 156.186C200.701 155.837 200.605 155.367 200.605 154.777V148.367H201.752V154.926C201.752 155.283 201.848 155.562 202.039 155.762C202.238 155.953 202.517 156.049 202.874 156.049H204.045V157.121H203.023ZM199.458 151.285V150.387H204.045V151.285H199.458ZM208.574 157.046V150.387H209.522V153.243H209.372C209.372 152.595 209.455 152.046 209.621 151.597C209.796 151.14 210.053 150.791 210.394 150.55C210.734 150.308 211.167 150.188 211.69 150.188H211.74C212.264 150.188 212.696 150.308 213.037 150.55C213.386 150.791 213.643 151.14 213.809 151.597C213.975 152.046 214.059 152.595 214.059 153.243H213.71C213.71 152.595 213.797 152.046 213.971 151.597C214.146 151.14 214.403 150.791 214.744 150.55C215.093 150.308 215.529 150.188 216.053 150.188H216.103C216.626 150.188 217.063 150.308 217.412 150.55C217.761 150.791 218.018 151.14 218.184 151.597C218.359 152.046 218.446 152.595 218.446 153.243V157.046H217.25V152.981C217.25 152.44 217.116 152.025 216.851 151.734C216.584 151.435 216.215 151.285 215.741 151.285C215.251 151.285 214.856 151.443 214.557 151.759C214.258 152.066 214.109 152.499 214.109 153.056V157.046H212.912V152.981C212.912 152.44 212.778 152.025 212.513 151.734C212.247 151.435 211.877 151.285 211.404 151.285C210.913 151.285 210.519 151.443 210.22 151.759C209.92 152.066 209.771 152.499 209.771 153.056V157.046H208.574ZM223.703 157.271C223.121 157.271 222.61 157.171 222.17 156.971C221.73 156.772 221.356 156.51 221.049 156.186C220.749 155.854 220.521 155.483 220.363 155.076C220.213 154.669 220.139 154.253 220.139 153.829V153.605C220.139 153.181 220.217 152.765 220.375 152.358C220.533 151.942 220.765 151.572 221.073 151.248C221.381 150.916 221.755 150.654 222.195 150.462C222.635 150.263 223.138 150.163 223.703 150.163C224.268 150.163 224.771 150.263 225.212 150.462C225.651 150.654 226.025 150.916 226.333 151.248C226.641 151.572 226.873 151.942 227.031 152.358C227.189 152.765 227.268 153.181 227.268 153.605V153.829C227.268 154.253 227.189 154.669 227.031 155.076C226.882 155.483 226.653 155.854 226.346 156.186C226.047 156.51 225.676 156.772 225.237 156.971C224.796 157.171 224.285 157.271 223.703 157.271ZM223.703 156.198C224.202 156.198 224.626 156.09 224.975 155.874C225.332 155.65 225.602 155.35 225.785 154.976C225.976 154.602 226.072 154.183 226.072 153.717C226.072 153.243 225.976 152.819 225.785 152.445C225.594 152.071 225.319 151.776 224.962 151.56C224.613 151.343 224.193 151.235 223.703 151.235C223.221 151.235 222.802 151.343 222.445 151.56C222.087 151.776 221.812 152.071 221.622 152.445C221.43 152.819 221.335 153.243 221.335 153.717C221.335 154.183 221.426 154.602 221.609 154.976C221.8 155.35 222.071 155.65 222.42 155.874C222.777 156.09 223.205 156.198 223.703 156.198ZM229.06 157.046V150.387H230.008V153.243H229.858C229.858 152.587 229.945 152.033 230.12 151.585C230.302 151.128 230.577 150.782 230.943 150.55C231.308 150.308 231.769 150.188 232.326 150.188H232.376C233.215 150.188 233.834 150.45 234.233 150.974C234.64 151.497 234.844 152.253 234.844 153.243V157.046H233.647V152.994C233.647 152.478 233.501 152.066 233.211 151.759C232.92 151.443 232.521 151.285 232.015 151.285C231.491 151.285 231.067 151.447 230.743 151.772C230.419 152.096 230.257 152.528 230.257 153.068V157.046H229.06ZM239.626 157.121C239.127 157.121 238.695 157.051 238.33 156.909C237.972 156.767 237.694 156.527 237.494 156.186C237.303 155.837 237.208 155.367 237.208 154.777V148.367H238.354V154.926C238.354 155.283 238.45 155.562 238.641 155.762C238.841 155.953 239.118 156.049 239.476 156.049H240.648V157.121H239.626ZM236.061 151.285V150.387H240.648V151.285H236.061ZM242.34 157.046V147.943H243.537V153.38H243.238C243.238 152.724 243.321 152.158 243.487 151.684C243.662 151.202 243.927 150.832 244.285 150.574C244.642 150.317 245.099 150.188 245.656 150.188H245.706C246.503 150.188 247.105 150.454 247.513 150.986C247.92 151.51 248.124 152.262 248.124 153.243V157.046H246.927V152.994C246.927 152.453 246.773 152.033 246.466 151.734C246.167 151.435 245.776 151.285 245.294 151.285C244.762 151.285 244.335 151.464 244.011 151.821C243.695 152.171 243.537 152.632 243.537 153.206V157.046H242.34Z" fill="#585757"/>
<path d="M374.055 133.889H352.688C350.721 133.889 349.126 135.484 349.126 137.452V158.828C349.126 160.795 350.721 162.39 352.688 162.39H374.055C376.022 162.39 377.616 160.795 377.616 158.828V137.452C377.616 135.484 376.022 133.889 374.055 133.889Z" fill="white"/>
<path d="M366.034 140.062C364.906 140.062 363.853 140.803 363.525 141.845L356.241 141.843C355.749 141.843 355.351 142.242 355.351 142.734C355.351 143.225 355.749 143.624 356.241 143.624L363.525 143.623C363.923 144.714 364.906 145.406 366.034 145.406C367.163 145.406 368.155 144.713 368.561 143.616L370.486 143.624C370.977 143.624 371.376 143.225 371.376 142.734C371.376 142.242 370.977 141.843 370.486 141.843H368.553C368.125 140.757 367.163 140.062 366.034 140.062ZM366.034 141.843C366.526 141.843 366.925 142.242 366.925 142.734C366.925 143.225 366.526 143.624 366.034 143.624C365.542 143.624 365.144 143.225 365.144 142.734C365.144 142.242 365.542 141.843 366.034 141.843ZM360.693 145.406C359.519 145.406 358.537 146.136 358.178 147.189C358.053 147.197 356.241 147.187 356.241 147.187C355.749 147.187 355.351 147.586 355.351 148.078C355.351 148.569 355.749 148.968 356.241 148.968C356.241 148.968 358.068 148.95 358.182 148.961C358.541 150.014 359.519 150.75 360.693 150.75C361.821 150.75 362.788 150.058 363.211 148.971L370.486 148.968C370.977 148.968 371.376 148.569 371.376 148.078C371.376 147.586 370.977 147.187 370.486 147.187L363.207 147.179C362.817 146.116 361.821 145.406 360.693 145.406ZM360.693 147.187C361.184 147.187 361.583 147.586 361.583 148.078C361.583 148.569 361.184 148.968 360.693 148.968C360.2 148.968 359.802 148.569 359.802 148.078C359.802 147.586 360.2 147.187 360.693 147.187ZM366.034 150.75C364.906 150.75 363.873 151.493 363.524 152.522L356.241 152.531C355.749 152.531 355.351 152.93 355.351 153.422C355.351 153.913 355.749 154.312 356.241 154.312L363.51 154.313C363.88 155.369 364.906 156.094 366.034 156.094C367.163 156.094 368.136 155.387 368.565 154.313L370.486 154.312C370.977 154.312 371.376 153.913 371.376 153.422C371.376 152.93 370.977 152.531 370.486 152.531L368.557 152.526C368.172 151.472 367.163 150.75 366.034 150.75ZM366.034 152.531C366.526 152.531 366.925 152.93 366.925 153.422C366.925 153.913 366.526 154.312 366.034 154.312C365.542 154.312 365.144 153.913 365.144 153.422C365.144 152.93 365.542 152.531 366.034 152.531Z" fill="#2A343D"/>
<path d="M376.281 141.014C379.477 141.014 382.068 138.422 382.068 135.225C382.068 132.028 379.477 129.436 376.281 129.436C373.085 129.436 370.494 132.028 370.494 135.225C370.494 138.422 373.085 141.014 376.281 141.014Z" fill="#0553AD"/>
<path d="M375.702 138.343V132.625L376.094 132.927H374.376V131.841H376.958V138.343H375.702Z" fill="white"/>
<path opacity="0.8" d="M284.469 116.076L282.014 106.974H283.273L285.404 115.278L284.818 114.979H286.301L285.653 115.278L287.386 107.348H288.533L286.551 116.076H284.469ZM289.941 116.076L287.76 107.348H288.944L290.901 115.278L290.278 114.979H291.773L291.138 115.278L293.045 106.974H294.266L292.035 116.076H289.941Z" fill="#585757"/>
<path opacity="0.8" d="M309.454 116.076V105.673H312.218L314.824 111.886H315.081L317.673 105.673H320.48V116.076H318.471V107.197L318.728 107.226L315.921 113.952H313.856L311.035 107.226L311.306 107.197V116.076H309.454Z" fill="#1C1C1C"/>
<path opacity="0.8" d="M341.92 112.535L339.028 106.974H340.3L342.743 111.737L342.269 111.6H343.74L343.241 111.737L345.535 106.974H346.731L344.014 112.535H341.92ZM342.369 116.076V112.285H343.565V116.076H342.369Z" fill="#585757"/>
<path opacity="0.8" d="M364.226 116.076V106.974H365.448V116.076H364.226ZM365.198 112.024V110.926L369.1 110.914V112.011L365.198 112.024ZM365.198 108.071V106.974H369.312V108.071H365.198ZM373.044 112.535L370.152 106.974H371.423L373.866 111.737L373.393 111.6H374.864L374.365 111.737L376.659 106.974H377.855L375.138 112.535H373.044ZM373.493 116.076V112.285H374.689V116.076H373.493Z" fill="#585757"/>
</g>
<rect x="68.1162" y="91.8269" width="338.884" height="354.984" rx="21" stroke="white" stroke-width="6" shape-rendering="crispEdges"/>
</g>
<g clip-path="url(#clip2_188_4481)">
<path d="M507.634 -106.669H-7.3114V1909.02H507.634V-106.669Z" fill="white"/>
<path d="M23.0969 229.052C22.2309 229.052 21.4957 228.912 20.8915 228.633C20.2873 228.344 19.8241 227.94 19.5019 227.422C19.1897 226.893 19.0336 226.276 19.0336 225.568H20.3931C20.3931 225.907 20.4737 226.25 20.6347 226.6C20.806 226.949 21.0879 227.243 21.4806 227.482C21.8734 227.712 22.4122 227.826 23.0969 227.826C24.0032 227.826 24.6729 227.637 25.1058 227.258C25.549 226.878 25.7705 226.445 25.7705 225.957C25.7705 225.478 25.5741 225.08 25.1814 224.761C24.7886 224.441 24.2197 224.247 23.4745 224.178L22.4776 224.088C21.5108 223.998 20.7405 223.709 20.1665 223.221C19.5925 222.733 19.3055 222.034 19.3055 221.128C19.3055 220.5 19.4565 219.967 19.7586 219.528C20.0709 219.079 20.5039 218.735 21.0577 218.496C21.6216 218.257 22.2812 218.137 23.0364 218.137C23.7917 218.137 24.4412 218.272 24.985 218.541C25.5389 218.801 25.9668 219.184 26.2689 219.692C26.571 220.191 26.7221 220.793 26.7221 221.501H25.3626C25.3626 221.143 25.2822 220.804 25.1209 220.485C24.9599 220.156 24.7082 219.887 24.3657 219.677C24.0334 219.468 23.5904 219.363 23.0364 219.363C22.5431 219.363 22.1201 219.444 21.7676 219.603C21.4253 219.752 21.1585 219.961 20.967 220.231C20.7858 220.5 20.6952 220.799 20.6952 221.128C20.6952 221.556 20.8513 221.93 21.1634 222.249C21.4757 222.557 21.954 222.742 22.5984 222.802L23.5953 222.892C24.6729 222.991 25.5339 223.305 26.1783 223.834C26.8329 224.352 27.1601 225.06 27.1601 225.957C27.1601 226.575 26.994 227.118 26.6617 227.587C26.3293 228.045 25.8611 228.403 25.2569 228.663C24.6527 228.923 23.9327 229.052 23.0969 229.052ZM22.4473 230.98V228.798H23.7464V230.98H22.4473ZM22.3869 218.87V216.687H23.686V218.87H22.3869ZM29.1894 229.052V227.258C29.1894 226.819 29.2498 226.445 29.3707 226.136C29.5017 225.828 29.7232 225.548 30.0353 225.299C30.3476 225.039 30.7705 224.791 31.3041 224.551L33.3735 223.61C33.8771 223.38 34.2749 223.086 34.5668 222.727C34.8589 222.359 35.0049 221.885 35.0049 221.307C35.0049 220.61 34.8085 220.066 34.4158 219.677C34.023 219.289 33.4692 219.094 32.7542 219.094C32.0494 219.094 31.4956 219.289 31.0927 219.677C30.6899 220.066 30.4885 220.61 30.4885 221.307H29.0686C29.0686 220.679 29.1996 220.101 29.4613 219.573C29.7332 219.044 30.141 218.625 30.6848 218.317C31.2286 217.997 31.9185 217.838 32.7542 217.838C33.5901 217.838 34.2749 217.997 34.8085 218.317C35.3523 218.625 35.7552 219.034 36.0169 219.543C36.2888 220.051 36.4247 220.604 36.4247 221.202V221.412C36.4247 222.199 36.1932 222.862 35.7299 223.4C35.2768 223.938 34.6625 224.382 33.8871 224.731L31.8177 225.673C31.3545 225.882 31.0424 226.091 30.8812 226.301C30.7201 226.51 30.6395 226.789 30.6395 227.138V228.513L30.2468 227.826H36.5607V229.052H29.1894ZM45.9283 229.052L41.4421 223.953H39.8259L44.9465 218.137H46.6382L41.9859 223.4L41.8499 222.369L47.7711 229.052H45.9283ZM38.98 229.052V218.137H40.4603V229.052H38.98Z" fill="#585757"/>
<path d="M40.9123 117.738C37.9864 117.738 35.5276 117.307 33.5355 116.444C31.5746 115.551 30.0806 114.303 29.0534 112.701C28.0575 111.068 27.5594 109.142 27.5594 106.924H33.5355C33.5355 107.88 33.7845 108.788 34.2825 109.651C34.7806 110.514 35.5586 111.222 36.6169 111.776C37.7063 112.3 39.1381 112.562 40.9123 112.562C43.2467 112.562 45.0209 112.115 46.2348 111.222C47.4487 110.329 48.0556 109.22 48.0556 107.895C48.0556 106.693 47.5265 105.691 46.4682 104.891C45.4411 104.09 43.8381 103.597 41.6593 103.412L39.0447 103.181C35.8388 102.872 33.2866 101.918 31.3878 100.316C29.4891 98.6833 28.5399 96.3726 28.5399 93.3838C28.5399 91.3192 29.0067 89.5794 29.9405 88.1617C30.9055 86.7441 32.2749 85.6812 34.0491 84.9731C35.8544 84.2337 37.9864 83.864 40.4454 83.864C42.9977 83.864 45.1609 84.2799 46.9351 85.1117C48.7404 85.9435 50.1099 87.1451 51.0437 88.7163C52.0086 90.2563 52.491 92.136 52.491 94.3542H46.5149C46.5149 93.3987 46.2814 92.5207 45.8146 91.7201C45.3788 90.9196 44.7096 90.2726 43.807 89.7792C42.9354 89.2858 41.8149 89.0398 40.4454 89.0398C39.2003 89.0398 38.1421 89.2246 37.2706 89.5943C36.399 89.964 35.7299 90.4724 35.263 91.1194C34.7961 91.7663 34.5627 92.5207 34.5627 93.3838C34.5627 94.4616 34.9517 95.4171 35.7299 96.249C36.5391 97.0808 37.8308 97.5742 39.605 97.7278L42.2196 97.9588C45.799 98.2674 48.6625 99.2528 50.8102 100.916C52.9891 102.58 54.0784 104.906 54.0784 107.895C54.0784 109.959 53.5493 111.73 52.491 113.209C51.4639 114.657 49.9698 115.782 48.0089 116.582C46.048 117.353 43.6824 117.738 40.9123 117.738ZM38.0643 123.561V116.814H43.4801V123.561H38.0643ZM37.8775 86.1284V79.3813H43.2934V86.1284H37.8775ZM62.093 117.599L74.8389 89.8716L74.4187 89.2708H57.144V83.864H81.9823V88.8549L69.0496 117.599H62.093ZM57.144 94.6777V83.864H62.5132V94.6777H57.144ZM99.1168 118.57C96.5956 118.57 94.4479 118.154 92.6738 117.322C90.9308 116.459 89.5145 115.289 88.4251 113.81C87.3358 112.331 86.5421 110.621 86.044 108.68C85.546 106.708 85.297 104.628 85.297 102.441V100.408C85.297 94.8938 86.6976 90.7184 89.4989 87.8845C92.3314 85.0193 96.471 83.5867 101.918 83.5867C103.101 83.5867 104.206 83.618 105.233 83.6791C106.26 83.7403 107.287 83.8327 108.314 83.9564V89.4557C107.287 89.332 106.229 89.2396 105.14 89.1784C104.081 89.1172 102.93 89.086 101.685 89.086C99.0701 89.086 97.0158 89.5332 95.5218 90.4261C94.0277 91.3191 92.9539 92.6294 92.3003 94.3542C91.6778 96.079 91.3665 98.2211 91.3665 100.778V103.782L89.8725 105.907C89.9036 103.536 90.3705 101.578 91.2731 100.038C92.2069 98.4672 93.483 97.2969 95.1016 96.5262C96.7201 95.7257 98.572 95.3247 100.657 95.3247C103.085 95.3247 105.155 95.8018 106.867 96.7573C108.579 97.7128 109.886 99.0366 110.789 100.732C111.723 102.426 112.189 104.397 112.189 106.647C112.189 108.989 111.66 111.068 110.602 112.885C109.544 114.673 108.034 116.074 106.073 117.091C104.144 118.076 101.825 118.57 99.1168 118.57ZM98.9767 113.07C100.44 113.07 101.685 112.808 102.712 112.285C103.739 111.73 104.517 110.976 105.046 110.02C105.575 109.065 105.84 107.972 105.84 106.739C105.84 105.477 105.575 104.367 105.046 103.412C104.548 102.456 103.801 101.717 102.805 101.194C101.809 100.67 100.611 100.408 99.2101 100.408C97.8717 100.408 96.6423 100.654 95.5218 101.147C94.4324 101.61 93.5608 102.318 92.9072 103.273C92.2847 104.198 91.9734 105.353 91.9734 106.739C91.9734 107.941 92.2224 109.019 92.7204 109.974C93.2495 110.93 94.0277 111.684 95.0549 112.239C96.1132 112.793 97.4205 113.07 98.9767 113.07ZM131.146 118.477C128.469 118.477 126.197 118.046 124.33 117.183C122.462 116.29 120.937 115.089 119.754 113.579C118.572 112.039 117.7 110.283 117.14 108.31C116.611 106.308 116.346 104.212 116.346 102.026V99.4376C116.346 96.3264 116.875 93.5224 117.934 91.0269C118.992 88.5314 120.61 86.5593 122.789 85.1117C124.968 83.6329 127.754 82.8935 131.146 82.8935C134.507 82.8935 137.278 83.6329 139.456 85.1117C141.636 86.5593 143.238 88.5314 144.265 91.0269C145.324 93.5224 145.853 96.3264 145.853 99.4376V102.026C145.853 104.212 145.573 106.308 145.012 108.31C144.484 110.283 143.628 112.039 142.444 113.579C141.294 115.089 139.783 116.29 137.916 117.183C136.048 118.046 133.792 118.477 131.146 118.477ZM131.146 112.47C133.917 112.47 135.955 111.53 137.262 109.651C138.569 107.741 139.223 104.783 139.223 100.778C139.223 96.5262 138.554 93.4911 137.215 91.6739C135.878 89.8254 133.854 88.9011 131.146 88.9011C128.407 88.9011 126.353 89.8254 124.983 91.6739C123.645 93.4911 122.976 96.495 122.976 100.685C122.976 104.721 123.645 107.695 124.983 109.604C126.322 111.514 128.376 112.47 131.146 112.47Z" fill="#111922"/>
<path d="M276.938 133.909H31.1379C28.1043 133.909 25.6451 136.343 25.6451 139.346V161.093C25.6451 164.096 28.1043 166.53 31.1379 166.53H276.938C279.972 166.53 282.431 164.096 282.431 161.093V139.346C282.431 136.343 279.972 133.909 276.938 133.909Z" fill="white"/>
<path d="M38.045 154.608L46.0706 146.665" stroke="#E75160"/>
<path d="M40.4747 146.428L46.0773 146.678L46.5547 152.446" stroke="#E75160"/>
<path d="M42.1233 158.602C46.8 158.602 50.5913 154.849 50.5913 150.22C50.5913 145.591 46.8 141.838 42.1233 141.838C37.4465 141.838 33.6553 145.591 33.6553 150.22C33.6553 154.849 37.4465 158.602 42.1233 158.602Z" stroke="#E75160"/>
<path d="M59.3321 154.142V151.212L64.8304 142.744L66.8874 144.133L62.0428 151.631L62.2735 152.011H70.8861V154.142H59.3321ZM66.6759 157.016V147.064H69.1944V157.016H66.6759ZM78.6165 157.377C77.5144 157.377 76.5787 157.199 75.8097 156.844C75.0407 156.476 74.4128 155.981 73.9257 155.36C73.4388 154.725 73.0798 154.002 72.8491 153.191C72.6313 152.366 72.5223 151.504 72.5223 150.603V149.537C72.5223 148.256 72.7402 147.102 73.1759 146.074C73.6118 145.047 74.2782 144.235 75.1753 143.638C76.0725 143.03 77.2196 142.725 78.6165 142.725C80.0007 142.725 81.1414 143.03 82.0385 143.638C82.9357 144.235 83.5957 145.047 84.0186 146.074C84.4545 147.102 84.6722 148.256 84.6722 149.537V150.603C84.6722 151.504 84.5569 152.366 84.3262 153.191C84.1084 154.002 83.7559 154.725 83.2689 155.36C82.7947 155.981 82.173 156.476 81.4041 156.844C80.6351 157.199 79.706 157.377 78.6165 157.377ZM78.6165 154.903C79.7572 154.903 80.5966 154.516 81.1349 153.743C81.6732 152.956 81.9424 151.738 81.9424 150.089C81.9424 148.339 81.6669 147.089 81.1157 146.341C80.5646 145.579 79.7315 145.199 78.6165 145.199C77.4887 145.199 76.6428 145.579 76.0788 146.341C75.5278 147.089 75.2522 148.326 75.2522 150.051C75.2522 151.713 75.5278 152.937 76.0788 153.724C76.63 154.511 77.4759 154.903 78.6165 154.903ZM86.9574 157.016V153.971H89.9564V157.016H86.9574ZM94.5809 157.016V144.799L95.4268 145.446H91.7164V143.125H97.2916V157.016H94.5809ZM103.978 157.016L109.149 143.125H111.36L106.189 157.016H103.978ZM102.978 150.698C102.235 150.698 101.62 150.534 101.133 150.203C100.646 149.861 100.28 149.411 100.037 148.852C99.8063 148.294 99.6909 147.685 99.6909 147.026V146.531C99.6909 145.808 99.8127 145.173 100.056 144.628C100.3 144.069 100.665 143.638 101.152 143.334C101.652 143.017 102.261 142.858 102.978 142.858C103.722 142.858 104.337 143.017 104.824 143.334C105.311 143.638 105.676 144.069 105.92 144.628C106.163 145.173 106.285 145.808 106.285 146.531V147.026C106.285 147.685 106.163 148.294 105.92 148.852C105.689 149.411 105.33 149.861 104.843 150.203C104.369 150.534 103.747 150.698 102.978 150.698ZM102.978 148.928C103.44 148.928 103.779 148.764 103.997 148.434C104.228 148.091 104.343 147.546 104.343 146.797C104.343 145.986 104.228 145.42 103.997 145.104C103.767 144.787 103.427 144.628 102.978 144.628C102.53 144.628 102.19 144.787 101.959 145.104C101.742 145.42 101.633 145.979 101.633 146.778C101.633 147.527 101.742 148.072 101.959 148.415C102.19 148.757 102.53 148.928 102.978 148.928ZM112.264 157.301C111.521 157.301 110.905 157.137 110.418 156.806C109.931 156.464 109.566 156.014 109.322 155.455C109.092 154.897 108.976 154.288 108.976 153.629V153.134C108.976 152.411 109.098 151.776 109.342 151.231C109.585 150.672 109.95 150.241 110.438 149.937C110.937 149.62 111.546 149.461 112.264 149.461C113.007 149.461 113.622 149.62 114.109 149.937C114.596 150.241 114.962 150.672 115.205 151.231C115.449 151.776 115.57 152.411 115.57 153.134V153.629C115.57 154.288 115.449 154.897 115.205 155.455C114.975 156.014 114.616 156.464 114.129 156.806C113.654 157.137 113.033 157.301 112.264 157.301ZM112.264 155.531C112.725 155.531 113.065 155.367 113.283 155.037C113.513 154.694 113.629 154.149 113.629 153.4C113.629 152.589 113.513 152.023 113.283 151.707C113.052 151.39 112.712 151.231 112.264 151.231C111.815 151.231 111.476 151.39 111.245 151.707C111.027 152.023 110.918 152.582 110.918 153.381C110.918 154.13 111.027 154.675 111.245 155.018C111.476 155.36 111.815 155.531 112.264 155.531Z" fill="#E75160"/>
<path d="M134.15 156L129.6 142.65H132.1L136.55 156H134.15ZM134.75 156V154.1H137.65V156H134.75ZM135.9 156L139.775 142.65H142.125L138.175 156H135.9ZM149.542 156.4C147.792 156.4 146.434 156.025 145.467 155.275C144.517 154.525 144.026 153.5 143.992 152.2H146.242C146.276 152.717 146.534 153.208 147.017 153.675C147.517 154.125 148.359 154.35 149.542 154.35C150.609 154.35 151.426 154.142 151.992 153.725C152.559 153.292 152.842 152.767 152.842 152.15C152.842 151.6 152.634 151.175 152.217 150.875C151.801 150.558 151.126 150.35 150.192 150.25L148.742 150.1C147.476 149.967 146.442 149.592 145.642 148.975C144.842 148.342 144.442 147.458 144.442 146.325C144.442 145.475 144.659 144.75 145.092 144.15C145.526 143.533 146.126 143.067 146.892 142.75C147.659 142.417 148.542 142.25 149.542 142.25C151.042 142.25 152.259 142.583 153.192 143.25C154.126 143.917 154.609 144.908 154.642 146.225H152.392C152.376 145.692 152.126 145.242 151.642 144.875C151.176 144.492 150.476 144.3 149.542 144.3C148.609 144.3 147.901 144.492 147.417 144.875C146.934 145.258 146.692 145.742 146.692 146.325C146.692 146.825 146.859 147.225 147.192 147.525C147.542 147.825 148.109 148.017 148.892 148.1L150.342 148.25C151.776 148.4 152.926 148.8 153.792 149.45C154.659 150.083 155.092 150.983 155.092 152.15C155.092 152.983 154.851 153.725 154.367 154.375C153.901 155.008 153.251 155.508 152.417 155.875C151.584 156.225 150.626 156.4 149.542 156.4ZM164.409 156V137.75H166.809V156H164.409ZM162.559 139.65V137.75H166.809V139.65H162.559ZM179.487 156V152H179.087V147.375C179.087 146.458 178.846 145.767 178.362 145.3C177.896 144.833 177.204 144.6 176.287 144.6C175.771 144.6 175.237 144.608 174.687 144.625C174.137 144.642 173.612 144.658 173.112 144.675C172.612 144.692 172.179 144.717 171.812 144.75V142.65C172.179 142.617 172.562 142.592 172.962 142.575C173.379 142.542 173.804 142.525 174.237 142.525C174.671 142.508 175.087 142.5 175.487 142.5C176.854 142.5 177.971 142.667 178.837 143C179.704 143.317 180.346 143.842 180.762 144.575C181.179 145.308 181.387 146.3 181.387 147.55V156H179.487ZM175.112 156.35C174.112 156.35 173.246 156.183 172.512 155.85C171.796 155.5 171.237 155 170.837 154.35C170.454 153.7 170.262 152.917 170.262 152C170.262 151.05 170.471 150.258 170.887 149.625C171.321 148.992 171.946 148.517 172.762 148.2C173.579 147.867 174.562 147.7 175.712 147.7H179.337V149.5H175.612C174.646 149.5 173.904 149.733 173.387 150.2C172.871 150.667 172.612 151.267 172.612 152C172.612 152.733 172.871 153.325 173.387 153.775C173.904 154.225 174.646 154.45 175.612 154.45C176.179 154.45 176.721 154.35 177.237 154.15C177.754 153.933 178.179 153.583 178.512 153.1C178.862 152.6 179.054 151.917 179.087 151.05L179.737 152C179.654 152.95 179.421 153.75 179.037 154.4C178.671 155.033 178.154 155.517 177.487 155.85C176.837 156.183 176.046 156.35 175.112 156.35ZM190.167 156.4C188.417 156.4 187.059 156.025 186.092 155.275C185.142 154.525 184.651 153.5 184.617 152.2H186.867C186.901 152.717 187.159 153.208 187.642 153.675C188.142 154.125 188.984 154.35 190.167 154.35C191.234 154.35 192.051 154.142 192.617 153.725C193.184 153.292 193.467 152.767 193.467 152.15C193.467 151.6 193.259 151.175 192.842 150.875C192.426 150.558 191.751 150.35 190.817 150.25L189.367 150.1C188.101 149.967 187.067 149.592 186.267 148.975C185.467 148.342 185.067 147.458 185.067 146.325C185.067 145.475 185.284 144.75 185.717 144.15C186.151 143.533 186.751 143.067 187.517 142.75C188.284 142.417 189.167 142.25 190.167 142.25C191.667 142.25 192.884 142.583 193.817 143.25C194.751 143.917 195.234 144.908 195.267 146.225H193.017C193.001 145.692 192.751 145.242 192.267 144.875C191.801 144.492 191.101 144.3 190.167 144.3C189.234 144.3 188.526 144.492 188.042 144.875C187.559 145.258 187.317 145.742 187.317 146.325C187.317 146.825 187.484 147.225 187.817 147.525C188.167 147.825 188.734 148.017 189.517 148.1L190.967 148.25C192.401 148.4 193.551 148.8 194.417 149.45C195.284 150.083 195.717 150.983 195.717 152.15C195.717 152.983 195.476 153.725 194.992 154.375C194.526 155.008 193.876 155.508 193.042 155.875C192.209 156.225 191.251 156.4 190.167 156.4ZM204.396 156.15C203.396 156.15 202.529 156.008 201.796 155.725C201.079 155.442 200.521 154.958 200.121 154.275C199.737 153.575 199.546 152.633 199.546 151.45V138.6H201.846V151.75C201.846 152.467 202.037 153.025 202.421 153.425C202.821 153.808 203.379 154 204.096 154H206.446V156.15H204.396ZM197.246 144.45V142.65H206.446V144.45H197.246Z" fill="#585757"/>
</g>
<rect x="14" y="31" width="184" height="184" rx="92" stroke="#0553AD" stroke-width="6"/>
</g>
<defs>
<filter id="filter0_d_188_4481" x="64.1162" y="88.8269" width="360.884" height="380.984" filterUnits="userSpaceOnUse" color-interpolation-filters="sRGB">
<feFlood flood-opacity="0" result="BackgroundImageFix"/>
<feColorMatrix in="SourceAlpha" type="matrix" values="0 0 0 0 0 0 0 0 0 0 0 0 0 0 0 0 0 0 127 0" result="hardAlpha"/>
<feOffset dx="7" dy="12"/>
<feGaussianBlur stdDeviation="4"/>
<feComposite in2="hardAlpha" operator="out"/>
<feColorMatrix type="matrix" values="0 0 0 0 0.00902778 0 0 0 0 0.151831 0 0 0 0 0.270833 0 0 0 0.02 0"/>
<feBlend mode="normal" in2="BackgroundImageFix" result="effect1_dropShadow_188_4481"/>
<feBlend mode="normal" in="SourceGraphic" in2="effect1_dropShadow_188_4481" result="shape"/>
</filter>
<clipPath id="clip0_188_4481">
<rect width="468" height="478" fill="white"/>
</clipPath>
<clipPath id="clip1_188_4481">
<rect x="65.1162" y="88.8269" width="344.884" height="360.984" rx="24" fill="white"/>
</clipPath>
<clipPath id="clip2_188_4481">
<rect x="11" y="28" width="190" height="190" rx="95" fill="white"/>
</clipPath>
</defs>
</svg>
